<svg width="375" height="36" viewBox="0 0 375 36" fill="none" xmlns="http://www.w3.org/2000/svg">
<path d="M351.466 14.6038C355.906 14.6038 359.62 14.7961 362.609 15.1808C365.598 15.5656 367.98 16.1722 369.755 17.0009C371.531 17.7999 372.804 18.8357 373.573 20.1082C374.342 21.3511 374.727 22.8308 374.727 24.5473C374.727 26.4117 374.121 28.0689 372.907 29.519C371.723 30.9395 370.051 32.1381 367.891 33.1147C365.76 34.0617 363.274 34.7719 360.433 35.2454C357.622 35.7485 354.589 36.0001 351.333 36.0001C347.723 36.0001 344.438 35.7337 341.479 35.201C338.519 34.6683 336.004 33.8545 333.932 32.7595C331.861 31.635 330.307 30.1997 329.271 28.4536C328.265 26.7076 327.865 24.6213 328.073 22.1946L347.027 20.9072C346.791 21.795 346.85 22.5349 347.205 23.1268C347.59 23.7186 348.182 24.1626 348.981 24.4585C349.78 24.7544 350.667 24.9024 351.644 24.9024C352.236 24.9024 352.769 24.858 353.242 24.7692C353.745 24.6804 354.189 24.5473 354.574 24.3697C354.959 24.1921 355.254 23.9702 355.462 23.7038C355.669 23.4079 355.772 23.0824 355.772 22.7273C355.772 22.017 355.402 21.5583 354.663 21.3511C353.952 21.144 352.902 21.0404 351.511 21.0404C351.452 21.0404 351.378 21.0404 351.289 21.0404C351.23 21.0404 351.156 21.0404 351.067 21.0404C351.008 21.0404 350.934 21.0404 350.845 21.0404C350.756 21.0404 350.667 21.0404 350.579 21.0404C350.519 21.0404 350.46 21.0404 350.401 21.0404C346.021 21.0404 342.381 20.8185 339.481 20.3745C336.581 19.901 334.287 19.25 332.6 18.4214C330.914 17.5927 329.715 16.6161 329.005 15.4916C328.295 14.3374 327.939 13.0501 327.939 11.6296C327.939 10.1203 328.339 8.759 329.138 7.54565C329.937 6.30271 331.062 5.22254 332.512 4.30514C333.991 3.35814 335.708 2.5739 337.661 1.95243C339.644 1.33096 341.804 0.857462 344.142 0.531929C346.51 0.206398 348.981 0.0436325 351.555 0.0436325C355.195 0.0436325 358.451 0.369164 361.321 1.02023C364.221 1.67129 366.648 2.60349 368.601 3.81684C370.584 5.03018 372.005 6.48028 372.863 8.16712C373.721 9.85397 373.928 11.748 373.484 13.8491L355.151 14.6925C355.476 13.8343 355.462 13.1389 355.107 12.6062C354.751 12.0439 354.189 11.6444 353.42 11.4076C352.68 11.1413 351.836 11.0081 350.889 11.0081C350.298 11.0081 349.765 11.0673 349.291 11.1857C348.818 11.2745 348.404 11.4224 348.048 11.6296C347.723 11.8072 347.457 12.0291 347.249 12.2955C347.072 12.5618 346.983 12.8429 346.983 13.1389C346.983 13.494 347.101 13.7899 347.338 14.0267C347.575 14.2338 347.93 14.3818 348.404 14.4706C348.907 14.5594 349.558 14.6038 350.357 14.6038C350.416 14.6038 350.475 14.6038 350.534 14.6038C350.623 14.6038 350.697 14.6038 350.756 14.6038C350.845 14.6038 350.919 14.6038 350.978 14.6038C351.067 14.6038 351.141 14.6038 351.2 14.6038C351.289 14.6038 351.378 14.6038 351.466 14.6038Z" fill="#FF5227"/>
<path d="M326.071 12.5617H285.75C285.721 12.5617 285.706 12.5617 285.706 12.5617V15.0032C285.706 15.0327 285.706 15.0623 285.706 15.0919C285.735 15.0919 285.75 15.0919 285.75 15.0919H325.405V21.351H285.75C285.75 21.351 285.735 21.351 285.706 21.351C285.706 21.351 285.706 21.3658 285.706 21.3954C285.706 21.3954 285.706 21.4102 285.706 21.4398V23.9257C285.735 23.9257 285.75 23.9257 285.75 23.9257H326.338V34.6682H267.728C267.728 32.9222 267.728 31.1762 267.728 29.4301C267.728 27.6545 267.728 25.8937 267.728 24.1476C267.728 22.4016 267.728 20.6556 267.728 18.9095C267.728 17.1339 267.728 15.3731 267.728 13.627C267.728 11.8514 267.728 10.0906 267.728 8.34456C267.728 7.1904 267.728 6.03625 267.728 4.88209C267.728 3.69834 267.728 2.52938 267.728 1.37523H326.071V12.5617Z" fill="#FF5227"/>
<path d="M246.312 34.6682C246.312 32.5375 246.312 30.4067 246.312 28.276C246.312 26.1452 246.312 24.0145 246.312 21.8837C246.312 19.753 246.312 17.6222 246.312 15.4915C246.312 13.3607 246.312 11.2299 246.312 9.0992C246.312 7.79707 246.312 6.50975 246.312 5.23721C246.312 3.93509 246.312 2.64776 246.312 1.37523H264.735C264.735 4.24582 264.735 7.11642 264.735 9.98701C264.735 12.828 264.735 15.6838 264.735 18.5544C264.735 20.33 264.735 22.1205 264.735 23.9257C264.735 25.7013 264.735 27.4917 264.735 29.2969C264.735 31.0726 264.735 32.863 264.735 34.6682H246.312Z" fill="#FF5227"/>
<path d="M224.914 1.05056H243.336C243.336 2.91496 243.336 4.77937 243.336 6.64378C243.336 8.50819 243.336 10.3726 243.336 12.237C243.336 14.1014 243.336 15.9806 243.336 17.8746C243.336 20.5972 243.336 23.3347 243.336 26.0869C243.336 28.8391 243.336 31.5913 243.336 34.3435H224.914C224.914 32.5383 224.914 30.7331 224.914 28.9279C224.914 27.1227 224.914 25.3174 224.914 23.5122C224.914 23.4826 224.899 23.4678 224.87 23.4678C224.87 23.4382 224.855 23.4234 224.825 23.4234H218.744C218.714 23.4234 218.699 23.4382 218.699 23.4678C218.699 23.4678 218.699 23.4826 218.699 23.5122C218.699 25.3174 218.699 27.1227 218.699 28.9279C218.699 30.7331 218.699 32.5383 218.699 34.3435H200.277C200.277 32.5679 200.277 30.7923 200.277 29.0167C200.277 27.241 200.277 25.4654 200.277 23.6898C200.277 21.9142 200.277 20.1385 200.277 18.3629C200.277 16.5873 200.277 14.8117 200.277 13.036C200.277 11.2604 200.277 9.48478 200.277 7.70915C200.277 6.58459 200.277 5.47483 200.277 4.37986C200.277 3.25529 200.277 2.14553 200.277 1.05056H218.699C218.699 2.47106 218.699 3.90636 218.699 5.35645C218.699 6.80654 218.699 8.25664 218.699 9.70673C218.699 11.1272 218.699 12.5625 218.699 14.0126C218.699 14.0422 218.699 14.0718 218.699 14.1014C218.699 14.1014 218.714 14.1014 218.744 14.1014H224.825C224.855 14.1014 224.87 14.1014 224.87 14.1014C224.899 14.0718 224.914 14.0422 224.914 14.0126C224.914 11.8523 224.914 9.69194 224.914 7.53159C224.914 5.37125 224.914 3.2109 224.914 1.05056Z" fill="#FF5227"/>
<path d="M172.544 35.9564C170.206 35.9564 168.046 35.8085 166.063 35.5125C164.08 35.2166 162.245 34.7875 160.558 34.2252C158.901 33.6629 157.407 32.9823 156.075 32.1832C154.773 31.3842 153.619 30.4816 152.612 29.4754C151.606 28.4692 150.763 27.3742 150.082 26.1905C149.431 24.9771 148.943 23.6898 148.617 22.3285C148.292 20.9672 148.129 19.5319 148.129 18.0226C148.129 15.5663 148.528 13.3616 149.327 11.4084C150.126 9.45521 151.251 7.76836 152.701 6.34786C154.181 4.92736 155.927 3.74361 157.939 2.79661C159.981 1.84961 162.23 1.15416 164.687 0.710249C167.143 0.236749 169.762 0 172.544 0C177.456 0 181.629 0.591875 185.062 1.77563C188.495 2.95938 191.203 4.66102 193.185 6.88055C195.198 9.10008 196.456 11.7931 196.959 14.9596L179.111 17.2152C178.477 17.2953 177.987 16.8334 177.649 16.2914C177.353 15.7883 176.953 15.3888 176.45 15.0928C175.947 14.7969 175.355 14.5749 174.675 14.427C174.023 14.279 173.313 14.205 172.544 14.205C171.478 14.205 170.531 14.353 169.703 14.6489C168.874 14.9153 168.208 15.3296 167.705 15.8919C167.232 16.4245 166.995 17.1052 166.995 17.9338C166.995 18.4369 167.084 18.8956 167.261 19.3099C167.439 19.7242 167.69 20.0942 168.016 20.4197C168.341 20.7156 168.726 20.9672 169.17 21.1743C169.644 21.3519 170.161 21.4999 170.724 21.6182C171.286 21.707 171.893 21.7514 172.544 21.7514C174.112 21.7514 175.429 21.4407 176.495 20.8192C176.828 20.6155 177.109 20.3322 177.338 20.0125C177.876 19.2617 178.671 18.613 179.592 18.6794L196.959 19.9314C196.633 22.1213 195.908 24.1781 194.783 26.1017C193.689 28.0253 192.15 29.7269 190.167 31.2066C188.214 32.6863 185.772 33.8405 182.842 34.6691C179.942 35.5273 176.509 35.9564 172.544 35.9564Z" fill="#FF5227"/>
<path d="M129.192 1.37523H146.282C146.282 2.47019 146.282 3.57996 146.282 4.70453C146.282 5.7995 146.282 6.90926 146.282 8.03382C146.282 9.12879 146.282 10.2386 146.282 11.3631C146.282 12.4581 146.282 13.5679 146.282 14.6924C146.282 15.7874 146.282 16.8972 146.282 18.0217C146.282 20.8035 146.282 23.5854 146.282 26.3672C146.282 29.1194 146.282 31.8864 146.282 34.6682H125.729L120.136 18.6876C120.136 18.658 120.121 18.6432 120.092 18.6432C120.092 18.6432 120.077 18.6432 120.047 18.6432C120.047 18.6432 120.047 18.658 120.047 18.6876C120.047 21.2918 120.047 23.9553 120.047 26.6779C120.047 29.4005 120.047 32.064 120.047 34.6682H102.957C102.957 32.4487 102.957 30.2292 102.957 28.0096C102.957 25.7901 102.957 23.5706 102.957 21.351C102.957 19.1315 102.957 16.912 102.957 14.6924C102.957 12.4729 102.957 10.2534 102.957 8.03382C102.957 5.81429 102.957 3.59476 102.957 1.37523H122.844L129.103 19.7973C129.133 19.7973 129.148 19.7973 129.148 19.7973C129.177 19.7973 129.192 19.7973 129.192 19.7973C129.192 19.7677 129.192 19.753 129.192 19.753V1.37523Z" fill="#FF5227"/>
<path d="M56.4863 1.37523H74.9084C74.9084 4.60095 74.9084 7.61951 74.9084 10.4309C74.9084 13.2423 74.9084 16.0537 74.9084 18.8651C74.9084 19.309 74.9972 19.6938 75.1748 20.0193C75.3819 20.3448 75.6335 20.626 75.9294 20.8627C76.255 21.0699 76.6101 21.2326 76.9948 21.351C77.4091 21.4694 77.8234 21.5286 78.2377 21.5286C79.096 21.5286 79.8654 21.3066 80.5461 20.8627C81.2267 20.4188 81.567 19.7677 81.567 18.9095C81.567 17.489 81.567 16.0833 81.567 14.6924C81.567 13.3015 81.567 11.8958 81.567 10.4753C81.567 9.05481 81.567 7.58991 81.567 6.08063C81.567 4.57135 81.567 3.00288 81.567 1.37523H99.9892C99.9892 3.62435 99.9892 5.93267 99.9892 8.30017C99.9892 10.6677 99.9892 13.05 99.9892 15.4471C99.9892 17.8146 99.9892 20.1229 99.9892 22.372C99.9892 24.6507 99.3677 26.6483 98.1248 28.3647C96.9114 30.0516 95.269 31.4721 93.1974 32.6262C91.1258 33.7508 88.7879 34.5942 86.1837 35.1565C83.609 35.7188 80.9604 35.9999 78.2377 35.9999C76.0774 35.9999 73.9319 35.8224 71.8011 35.4672C69.6999 35.1121 67.7172 34.5646 65.8528 33.8248C64.0179 33.0849 62.3903 32.1823 60.9698 31.117C59.5789 30.022 58.4839 28.7495 57.6849 27.2994C56.8858 25.8197 56.4863 24.1772 56.4863 22.372C56.4863 21.2474 56.4863 20.0933 56.4863 18.9095C56.4863 17.6962 56.4863 16.4976 56.4863 15.3139C56.4863 13.7454 56.4863 12.1769 56.4863 10.6085C56.4863 9.04001 56.4863 7.48634 56.4863 5.94746C56.4863 4.37899 56.4863 2.85491 56.4863 1.37523Z" fill="#FF5227"/>
<path d="M53.4907 1.37523C53.4907 3.59476 53.4907 5.81429 53.4907 8.03382C53.4907 10.2534 53.4907 12.4729 53.4907 14.6924C53.4907 16.912 53.4907 19.1315 53.4907 21.351C53.4907 23.5706 53.4907 25.7901 53.4907 28.0096C53.4907 30.2292 53.4907 32.4487 53.4907 34.6682H36.4003C36.4003 31.5905 36.4003 28.5127 36.4003 25.435C36.4003 22.3572 36.4003 19.2795 36.4003 16.2017C36.4003 16.1721 36.3855 16.1573 36.3559 16.1573C36.3559 16.1573 36.3411 16.1573 36.3116 16.1573C36.3116 16.1573 36.3116 16.1721 36.3116 16.2017L31.9613 34.6682H20.6417C19.9018 31.5905 19.1768 28.5275 18.4665 25.4794C17.7563 22.4312 17.0312 19.383 16.2914 16.3349C16.2914 16.3053 16.2766 16.2905 16.247 16.2905C16.247 16.2905 16.2322 16.2905 16.2026 16.2905C16.2026 16.2905 16.2026 16.3053 16.2026 16.3349C16.2026 19.383 16.2026 22.4312 16.2026 25.4794C16.2026 28.5275 16.2026 31.5905 16.2026 34.6682H0C0 32.4487 0 30.2292 0 28.0096C0 25.7605 0 23.5262 0 21.3066C0 19.0575 0 16.8232 0 14.6036C0 12.3545 0 10.1202 0 7.90065C0 6.80568 0 5.72551 0 4.66013C0 3.56516 0 2.47019 0 1.37523H23.6602C24.1041 3.21004 24.5332 5.04485 24.9475 6.87967C25.3619 8.68489 25.7762 10.5049 26.1905 12.3397C26.6344 14.1745 27.0635 16.0093 27.4778 17.8442C27.4778 17.8738 27.4778 17.9033 27.4778 17.9329C27.5074 17.9329 27.5222 17.9329 27.5222 17.9329C27.5518 17.9033 27.5666 17.8738 27.5666 17.8442L31.1178 1.37523H53.4907Z" fill="#FF5227"/>
</svg>
